HIERARCHY
ROOT Hips
{
 OFFSET 0.000000 0.000000 0.000000
 CHANNELS 6 Xposition Yposition Zposition Yrotation Xrotation Zrotation
 JOINT Chest
 {
  OFFSET 0.000000 9.585900 0.002600
  CHANNELS 3 Yrotation Xrotation Zrotation
  JOINT Chest2
  {
   OFFSET 0.000000 9.601200 -0.005300
   CHANNELS 3 Yrotation Xrotation Zrotation
   JOINT Chest3
   {
    OFFSET 0.000000 9.561800 0.000000
    CHANNELS 3 Yrotation Xrotation Zrotation
    JOINT Chest4
    {
     OFFSET 0.000000 9.552100 0.000000
     CHANNELS 3 Yrotation Xrotation Zrotation
     JOINT Neck
     {
      OFFSET 0.000000 14.453000 0.000000
      CHANNELS 3 Yrotation Xrotation Zrotation
      JOINT Head
      {
       OFFSET 0.000000 8.936500 -0.011300
       CHANNELS 3 Yrotation Xrotation Zrotation
       End Site
       {
        OFFSET 0.000000 17.073600 -0.006000
       }
      }
     }
     JOINT RightCollar
     {
      OFFSET -2.921100 9.558500 0.000000
      CHANNELS 3 Yrotation Xrotation Zrotation
      JOINT RightShoulder
      {
       OFFSET -13.519700 0.000000 0.000000
       CHANNELS 3 Yrotation Xrotation Zrotation
       JOINT RightElbow
       {
        OFFSET 0.000000 -29.696600 0.000000
        CHANNELS 3 Yrotation Xrotation Zrotation
        JOINT RightWrist
        {
         OFFSET 0.000000 -24.004700 0.000000
         CHANNELS 3 Yrotation Xrotation Zrotation
         End Site
         {
          OFFSET 0.000000 -17.728500 0.000000
         }
        }
       }
      }
     }
     JOINT LeftCollar
     {
      OFFSET 2.921100 9.558500 0.000000
      CHANNELS 3 Yrotation Xrotation Zrotation
      JOINT LeftShoulder
      {
       OFFSET 13.519700 0.000000 0.000000
       CHANNELS 3 Yrotation Xrotation Zrotation
       JOINT LeftElbow
       {
        OFFSET 0.000000 -29.696600 0.000000
        CHANNELS 3 Yrotation Xrotation Zrotation
        JOINT LeftWrist
        {
         OFFSET 0.000000 -24.004700 0.000000
         CHANNELS 3 Yrotation Xrotation Zrotation
         End Site
         {
          OFFSET 0.000000 -17.728500 0.000000
         }
        }
       }
      }
     }
    }
   }
  }
 }
 JOINT RightHip
 {
  OFFSET -7.771700 -0.012900 -0.001300
  CHANNELS 3 Yrotation Xrotation Zrotation
  JOINT RightKnee
  {
   OFFSET 0.000000 -40.869800 0.001200
   CHANNELS 3 Yrotation Xrotation Zrotation
   JOINT RightAnkle
   {
    OFFSET 0.000000 -39.717900 0.002100
    CHANNELS 3 Yrotation Xrotation Zrotation
    JOINT RightToe
    {
     OFFSET 0.000000 -4.965400 11.033500
     CHANNELS 3 Yrotation Xrotation Zrotation
     End Site
     {
      OFFSET 0.000000 -1.423100 5.872300
     }
    }
   }
  }
 }
 JOINT LeftHip
 {
  OFFSET 7.771700 -0.012900 -0.001300
  CHANNELS 3 Yrotation Xrotation Zrotation
  JOINT LeftKnee
  {
   OFFSET 0.000000 -40.869800 0.001200
   CHANNELS 3 Yrotation Xrotation Zrotation
   JOINT LeftAnkle
   {
    OFFSET 0.000000 -39.717900 0.002100
    CHANNELS 3 Yrotation Xrotation Zrotation
    JOINT LeftToe
    {
     OFFSET 0.000000 -4.965400 11.033500
     CHANNELS 3 Yrotation Xrotation Zrotation
     End Site
     {
      OFFSET 0.000000 -1.423100 5.872300
     }
    }
   }
  }
 }
}
MOTION
Frames: 8
Frame Time: 0.008333
-27.300012 52.991345 2.797943 -177.454189 -15.140558 -2.415336 0.735759 15.297063 0.819705 0.057861 1.426200 0.077824 0.109934 2.418668 0.127174 0.656421 13.637924 0.819730 0.879686 18.475266 4.782750 -0.155879 -6.132028 4.906926 -0.134141 -0.863979 2.537911 0.923784 -7.856415 -5.763033 -69.388689 -78.875694 99.503931 -6.344662 -16.871345 -12.920879 -6.192352 -1.582129 0.521793 3.242194 -6.950017 10.395094 64.857621 -66.291529 -101.976945 1.388486 -11.379007 7.596993 1.781264 -63.195418 10.958494 -172.167594 86.259570 -174.058755 -11.832506 -22.065540 13.532690 0.022020 -0.028323 -0.012295 4.734095 -61.750810 -3.556301 121.329179 78.298099 119.357750 -6.604772 -19.679435 -1.174376 0.052691 0.169980 0.014159
-27.300999 52.992145 2.796319 -177.451598 -15.132148 -2.403622 0.721692 15.277514 0.809255 0.056564 1.423049 0.077481 0.106428 2.413693 0.127612 0.622468 13.591565 0.817382 0.886496 18.513686 4.752070 -0.136702 -6.101882 4.893866 -0.103946 -0.797261 2.535411 0.937372 -7.875551 -5.773383 -69.224841 -78.866565 99.321423 -6.346330 -16.825816 -12.909538 -6.169403 -1.521904 0.482928 3.238044 -6.956904 10.417956 64.835702 -66.273962 -101.934823 1.392999 -11.385110 7.591787 1.802105 -63.205562 10.964754 -171.688311 86.256790 -173.547265 -12.177999 -22.044735 13.598608 0.010321 -0.004223 0.001878 4.751758 -61.754908 -3.581688 121.309808 78.299929 119.338572 -6.604745 -19.676918 -1.174579 0.054081 0.170138 0.014849
-27.303138 52.992915 2.794827 -177.444857 -15.125176 -2.385784 0.703618 15.263184 0.790591 0.051932 1.417112 0.078345 0.094380 2.388686 0.130603 0.620656 13.600118 0.810096 0.900318 18.540771 4.743167 -0.150735 -6.090173 4.845496 -0.097684 -0.753318 2.553901 0.956266 -7.909191 -5.793762 -69.031222 -78.851455 99.099139 -6.344941 -16.764472 -12.892742 -6.152513 -1.492616 0.471240 3.222319 -6.969567 10.418598 64.803171 -66.254708 -101.882261 1.391831 -11.380411 7.586209 1.835386 -63.220603 10.993350 -170.577929 86.252622 -172.364502 -12.785198 -21.992822 13.694432 -0.013405 0.026030 0.024364 4.776501 -61.757933 -3.618589 121.302872 78.301860 119.330391 -6.607117 -19.672873 -1.177138 0.061203 0.167418 0.020967
-27.303460 52.993757 2.793083 -177.447030 -15.122304 -2.377258 0.701296 15.257971 0.782870 0.041999 1.404970 0.082000 0.092638 2.384055 0.129990 0.610840 13.588421 0.806495 0.903360 18.560490 4.721626 -0.139527 -6.076178 4.847425 -0.081401 -0.716981 2.554572 0.941309 -7.951959 -5.785558 -68.561288 -78.815950 98.586893 -6.332265 -16.713483 -12.835989 -6.145070 -1.461158 0.452456 3.220141 -6.982427 10.426523 64.790490 -66.222127 -101.840155 1.387746 -11.341701 7.552562 1.858334 -63.227100 10.996776 -170.258629 86.250355 -172.020310 -13.016145 -21.970599 13.730517 -0.020493 0.025438 0.029856 4.784368 -61.755860 -3.628467 121.291601 78.301495 119.317920 -6.607695 -19.682181 -1.180309 0.063287 0.173738 0.022447
-27.302207 52.994400 2.791842 -177.447728 -15.118514 -2.380052 0.687884 15.242393 0.786820 0.046004 1.401323 0.082455 0.090740 2.379049 0.129497 0.600440 13.575864 0.803344 0.899786 18.581682 4.697749 -0.134112 -6.055452 4.821708 -0.062622 -0.681849 2.549588 0.921855 -7.969698 -5.773546 -68.375793 -78.810779 98.404062 -6.334650 -16.631705 -12.836221 -6.138537 -1.424824 0.409728 3.215532 -6.998469 10.458508 64.777321 -66.215228 -101.809053 1.393328 -11.326345 7.542758 1.854431 -63.225210 10.950323 -170.977236 86.251624 -172.786534 -12.676004 -22.001848 13.680137 -0.002720 -0.008007 0.015795 4.761301 -61.759845 -3.610486 121.289130 78.296151 119.311713 -6.601952 -19.685227 -1.186925 0.060064 0.174207 0.022804
-27.300253 52.994706 2.791419 -177.445135 -15.111836 -2.389977 0.674365 15.213808 0.802560 0.050513 1.408058 0.077162 0.093379 2.383874 0.127450 0.585662 13.552829 0.804376 0.895276 18.604715 4.667713 -0.130955 -6.032284 4.792011 -0.052610 -0.637574 2.553610 0.906854 -7.991239 -5.769160 -68.073125 -78.785416 98.080544 -6.320729 -16.575982 -12.811383 -6.122322 -1.390656 0.393473 3.207112 -7.011307 10.467747 64.776317 -66.192686 -101.790449 1.389251 -11.274066 7.528653 1.833305 -63.223646 10.905743 -171.740006 86.252425 -173.621254 -12.169959 -22.043913 13.609104 0.019188 -0.044365 -0.000040 4.734129 -61.769916 -3.586060 121.299242 78.293283 119.320843 -6.595432 -19.684353 -1.190807 0.056759 0.172457 0.022417
-27.299967 52.994885 2.790836 -177.439034 -15.108606 -2.393399 0.667199 15.207758 0.805071 0.046350 1.400122 0.078579 0.094416 2.384125 0.127071 0.572455 13.531586 0.806712 0.878059 18.614092 4.607791 -0.117512 -5.986618 4.718241 -0.037141 -0.583584 2.577508 0.886126 -8.020200 -5.783979 -67.786434 -78.756920 97.773174 -6.308284 -16.539411 -12.797296 -6.115212 -1.354298 0.365851 3.215446 -7.032714 10.477198 64.757913 -66.173813 -101.743063 1.383269 -11.219161 7.491476 1.826780 -63.225655 10.892199 -171.914888 86.252871 -173.806329 -12.050972 -22.049354 13.582876 0.022703 -0.053181 0.001877 4.722087 -61.774665 -3.580748 121.303411 78.292572 119.325301 -6.591952 -19.682899 -1.193063 0.055060 0.171219 0.022588
-27.301297 52.995074 2.789757 -177.432702 -15.110760 -2.389614 0.652724 15.199016 0.800366 0.050930 1.407897 0.076556 0.086964 2.369266 0.129613 0.567532 13.518222 0.808404 0.881396 18.639947 4.585558 -0.113939 -5.976995 4.698719 -0.022908 -0.547366 2.576861 0.860482 -8.029284 -5.773865 -67.577164 -78.731834 97.554246 -6.306717 -16.519775 -12.805667 -6.110025 -1.317891 0.336889 3.223896 -7.040510 10.492069 64.752489 -66.157026 -101.726560 1.395020 -11.159002 7.433552 1.839659 -63.229698 10.918962 -171.055352 86.249037 -172.898874 -12.339178 -22.013739 13.617053 -0.009095 -0.039230 0.017746 4.724626 -61.772785 -3.592628 121.316024 78.294912 119.341590 -6.590074 -19.680368 -1.197959 0.058231 0.168088 0.024953
